<mxfile host="app.diagrams.net" modified="2024-06-05T09:54:06.638Z" agent="Mozilla/5.0 (Windows NT 10.0; Win64; x64) AppleWebKit/537.36 (KHTML, like Gecko) Chrome/125.0.0.0 Safari/537.36" version="24.4.13" etag="ay2ChmDAnW0tUgHUfUl5" type="github">
  <diagram name="第 1 页" id="bvnDBQROtfGym5VGo4XX">
    <mxGraphModel>
      <root>
        <mxCell id="0" />
        <mxCell id="1" parent="0" />
      </root>
    </mxGraphModel>
  </diagram>
</mxfile>
